<svg width="24" height="24" viewBox="0 0 24 24" fill="none" xmlns="http://www.w3.org/2000/svg">
<path d="M12 19.35C14.0333 17.4833 15.5417 15.7877 16.525 14.263C17.5083 12.7383 18 11.384 18 10.2C18 8.38333 17.421 6.896 16.263 5.738C15.105 4.58 13.684 4.00067 12 4C10.3167 4 8.896 4.57933 7.738 5.738C6.58 6.89667 6.00067 8.384 6 10.2C6 11.3833 6.49167 12.7377 7.475 14.263C8.45833 15.7883 9.96667 17.484 12 19.35ZM12 21.325C11.7667 21.325 11.5333 21.2833 11.3 21.2C11.0667 21.1167 10.8583 20.9917 10.675 20.825C9.59167 19.825 8.63333 18.85 7.8 17.9C6.96667 16.95 6.271 16.0293 5.713 15.138C5.15433 14.246 4.72933 13.3877 4.438 12.563C4.14667 11.7383 4.00067 10.9507 4 10.2C4 7.7 4.80433 5.70833 6.413 4.225C8.02167 2.74167 9.884 2 12 2C14.1167 2 15.9793 2.74167 17.588 4.225C19.1967 5.70833 20.0007 7.7 20 10.2C20 10.95 19.8543 11.7377 19.563 12.563C19.2717 13.3883 18.8467 14.2467 18.288 15.138C17.7293 16.0293 17.0333 16.95 16.2 17.9C15.3667 18.85 14.4083 19.825 13.325 20.825C13.1417 20.9917 12.9333 21.1167 12.7 21.2C12.4667 21.2833 12.2333 21.325 12 21.325ZM12 12C12.55 12 13.021 11.8043 13.413 11.413C13.805 11.0217 14.0007 10.5507 14 10C14 9.45 13.8043 8.97933 13.413 8.588C13.0217 8.19667 12.5507 8.00067 12 8C11.45 8 10.9793 8.196 10.588 8.588C10.1967 8.98 10.0007 9.45067 10 10C10 10.55 10.196 11.021 10.588 11.413C10.98 11.805 11.4507 12.0007 12 12Z" fill="white"/>
</svg>
