<svg width="24" height="24" viewBox="0 0 24 24" fill="none" xmlns="http://www.w3.org/2000/svg">
<path d="M14.475 12L7.12497 4.65C6.87497 4.4 6.75397 4.104 6.76197 3.762C6.76997 3.42 6.8993 3.12433 7.14997 2.875C7.39997 2.625 7.69597 2.5 8.03797 2.5C8.37997 2.5 8.67564 2.625 8.92497 2.875L16.6 10.575C16.8 10.775 16.95 11 17.05 11.25C17.15 11.5 17.2 11.75 17.2 12C17.2 12.25 17.15 12.5 17.05 12.75C16.95 13 16.8 13.225 16.6 13.425L8.89997 21.125C8.64997 21.375 8.3583 21.496 8.02497 21.488C7.69163 21.48 7.39997 21.3507 7.14997 21.1C6.89997 20.85 6.77497 20.554 6.77497 20.212C6.77497 19.87 6.89997 19.5743 7.14997 19.325L14.475 12Z" fill="white"/>
</svg>
